<svg viewBox="0 0 374 117" fill="none" xmlns="http://www.w3.org/2000/svg">
<path d="M0 0H374V77C374 99.0914 356.091 117 334 117H0V0Z" fill="#0D008A"/>
<path d="M115.421 53.1356C116.437 53.92 117.651 54.5117 119.063 54.9025C120.472 55.296 122.027 55.4915 123.726 55.4915C125.761 55.4915 127.517 55.22 128.991 54.6772C130.465 54.1344 131.632 53.35 132.491 52.3214C133.35 51.2928 133.865 50.0497 134.033 48.5896H130.335C130.072 49.3386 129.657 49.9927 129.088 50.5545C128.519 51.1164 127.79 51.5452 126.904 51.8437C126.018 52.1423 124.959 52.2916 123.726 52.2916C122.195 52.2916 120.851 52.0527 119.691 51.575C118.534 51.0974 117.637 50.4026 117.003 49.4852C116.369 48.5678 116.052 47.4361 116.052 46.0899C116.052 44.7437 116.369 43.5794 117.003 42.6539C117.637 41.7284 118.534 41.0254 119.691 40.5505C120.848 40.0728 122.192 39.8339 123.726 39.8339C124.959 39.8339 126.024 39.9832 126.918 40.2818C127.815 40.5803 128.546 41.0173 129.115 41.5872C129.684 42.1572 130.091 42.8357 130.335 43.6201H134.033C133.884 42.1436 133.38 40.8843 132.521 39.8475C131.662 38.8107 130.492 38.0101 129.007 37.4483C127.522 36.8865 125.761 36.6069 123.726 36.6069C122.027 36.6069 120.472 36.8077 119.063 37.2094C117.654 37.6111 116.44 38.2109 115.421 39.0061C114.402 39.8014 113.614 40.7866 113.053 41.9672C112.492 43.1451 112.213 44.5212 112.213 46.0926C112.213 47.6641 112.492 49.0347 113.053 50.2017C113.614 51.3715 114.402 52.3485 115.421 53.1329V53.1356Z" fill="white"/>
<path d="M142.492 36.976H138.767V55.1278H142.492V36.976Z" fill="white"/>
<path d="M157.701 55.1278V40.0891H165.375V36.976H146.272V40.0891H153.976V55.1278H157.701Z" fill="white"/>
<path d="M182.657 36.976L177.183 46.0003L171.621 36.976H167.307L175.262 49.4038V55.1278H179.015V49.4038L186.97 36.976H182.657Z" fill="white"/>
<path d="M202.136 54.3543C203.846 55.1115 205.902 55.4915 208.311 55.4915C210.72 55.4915 212.801 55.1115 214.5 54.3543C216.199 53.597 217.502 52.5168 218.407 51.1136C219.312 49.7105 219.765 48.0277 219.765 46.0627C219.765 44.0978 219.312 42.3879 218.407 40.9847C217.502 39.5815 216.199 38.5013 214.5 37.7441C212.801 36.9869 210.736 36.6069 208.311 36.6069C205.886 36.6069 203.843 36.9869 202.136 37.7441C200.426 38.5013 199.12 39.5815 198.215 40.9847C197.31 42.3879 196.858 44.0815 196.858 46.0627C196.858 48.044 197.31 49.7105 198.215 51.1136C199.12 52.5168 200.429 53.597 202.136 54.3543ZM201.646 42.586C202.299 41.6687 203.204 40.982 204.363 40.5233C205.52 40.0646 206.837 39.8367 208.314 39.8367C209.791 39.8367 211.118 40.0646 212.248 40.5233C213.378 40.982 214.264 41.6687 214.909 42.586C215.554 43.5034 215.876 44.6623 215.876 46.0655C215.876 47.4686 215.554 48.6276 214.909 49.5449C214.264 50.4623 213.378 51.1435 212.248 51.594C211.118 52.0419 209.807 52.2671 208.314 52.2671C206.821 52.2671 205.523 52.0419 204.363 51.594C203.206 51.1462 202.299 50.4623 201.646 49.5449C200.993 48.6276 200.665 47.4686 200.665 46.0655C200.665 44.6623 200.993 43.5034 201.646 42.586Z" fill="white"/>
<path d="M227.693 47.8893H239.122V44.9717H227.693V40.0891H241.642V36.976H223.97V55.1278H227.693V47.8893Z" fill="white"/>
<path d="M127.815 59.7417L121.623 74.585L115.407 59.7417H111.289L119.301 77.8935H123.951L131.876 59.7417H127.815Z" fill="white"/>
<path d="M139.748 59.7417L131.234 77.8935H135.266L137.054 73.9363H146.516L148.318 77.8935H152.38L143.782 59.7417H139.748ZM138.463 70.8233L141.769 63.5116L145.099 70.8233H138.463Z" fill="white"/>
<path d="M172.769 73.0298L159.297 59.7417H155.572V77.8935H159.297V64.7085L172.769 77.8935H176.495V59.7417H172.769V73.0298Z" fill="white"/>
<path d="M188.173 63.3189C189.33 62.8412 190.674 62.6023 192.208 62.6023C193.441 62.6023 194.506 62.7516 195.4 63.0502C196.297 63.3487 197.028 63.7857 197.597 64.3556C198.166 64.9256 198.573 65.6041 198.817 66.3885H202.513C202.364 64.912 201.86 63.6527 201.001 62.6159C200.142 61.5791 198.971 60.7785 197.486 60.2167C196.001 59.6549 194.243 59.3753 192.205 59.3753C190.506 59.3753 188.951 59.5761 187.542 59.9778C186.133 60.3795 184.919 60.9793 183.9 61.7745C182.882 62.5698 182.093 63.555 181.535 64.7356C180.977 65.9162 180.695 67.2896 180.695 68.861C180.695 70.4325 180.974 71.8031 181.535 72.9701C182.096 74.1399 182.884 75.117 183.9 75.9013C184.916 76.6857 186.13 77.2746 187.542 77.6682C188.951 78.0617 190.506 78.2571 192.205 78.2571C194.24 78.2571 195.996 77.9857 197.47 77.4429C198.944 76.9001 200.112 76.1157 200.971 75.0871C201.83 74.0585 202.345 72.8154 202.513 71.3552H198.817C198.554 72.1043 198.139 72.7584 197.57 73.3202C197.001 73.8821 196.272 74.3109 195.386 74.6094C194.5 74.908 193.441 75.0572 192.208 75.0572C190.677 75.0572 189.333 74.8184 188.173 74.3407C187.016 73.8631 186.12 73.1682 185.485 72.2509C184.851 71.3335 184.534 70.2018 184.534 68.8556C184.534 67.5094 184.851 66.3451 185.485 65.4196C186.12 64.4941 187.016 63.7911 188.173 63.3161V63.3189Z" fill="white"/>
<path d="M223.688 60.5125C221.989 59.7553 219.924 59.3753 217.499 59.3753C215.074 59.3753 213.031 59.7553 211.324 60.5125C209.614 61.2697 208.308 62.3499 207.403 63.7531C206.498 65.1563 206.046 66.8499 206.046 68.8312C206.046 70.8124 206.498 72.4789 207.403 73.8821C208.308 75.2852 209.617 76.3654 211.324 77.1227C213.031 77.8799 215.091 78.2599 217.499 78.2599C219.908 78.2599 221.989 77.8799 223.688 77.1227C225.387 76.3654 226.69 75.2852 227.595 73.8821C228.5 72.4789 228.953 70.7961 228.953 68.8312C228.953 66.8662 228.5 65.1563 227.595 63.7531C226.69 62.3499 225.387 61.2697 223.688 60.5125ZM224.094 72.3106C223.45 73.228 222.564 73.9092 221.434 74.3597C220.304 74.8076 218.992 75.0328 217.499 75.0328C216.006 75.0328 214.708 74.8076 213.549 74.3597C212.392 73.9119 211.484 73.228 210.831 72.3106C210.178 71.3932 209.85 70.2343 209.85 68.8312C209.85 67.428 210.178 66.2691 210.831 65.3517C211.484 64.4343 212.389 63.7477 213.549 63.289C214.706 62.8303 216.023 62.6023 217.499 62.6023C218.976 62.6023 220.304 62.8303 221.434 63.289C222.564 63.7477 223.45 64.4343 224.094 65.3517C224.739 66.2691 225.062 67.428 225.062 68.8312C225.062 70.2343 224.739 71.3932 224.094 72.3106Z" fill="white"/>
<path d="M249.795 69.8706C249.795 71.2928 249.51 72.373 248.941 73.1112C248.372 73.8495 247.606 74.3543 246.644 74.6257C245.682 74.8971 244.595 75.0328 243.381 75.0328C242.167 75.0328 241.016 74.8971 240.035 74.6257C239.054 74.3543 238.285 73.8495 237.724 73.1112C237.163 72.373 236.884 71.2928 236.884 69.8706V59.7417H233.158V70.2615C233.158 71.4584 233.331 72.506 233.675 73.4044C234.02 74.3027 234.502 75.06 235.117 75.676C235.732 76.2921 236.466 76.7942 237.314 77.1769C238.165 77.5596 239.103 77.8365 240.13 78.0047C241.157 78.173 242.241 78.2571 243.379 78.2571C244.517 78.2571 245.53 78.173 246.53 78.0047C247.53 77.8365 248.454 77.5596 249.302 77.1769C250.15 76.7942 250.892 76.2921 251.529 75.676C252.163 75.06 252.653 74.3 253 73.4044C253.344 72.506 253.518 71.4584 253.518 70.2615V59.7417H249.792V69.8706H249.795Z" fill="white"/>
<path d="M267.131 74.585L260.912 59.7417H256.796L264.806 77.8935H269.456L277.381 59.7417H273.322L267.131 74.585Z" fill="white"/>
<path d="M284.385 70.3185H295.812V67.3737H284.385V62.8547H298.334V59.7417H280.66V77.8935H298.362V74.7804H284.385V70.3185Z" fill="white"/>
<path d="M319.087 70.2208C318.616 70.1095 318.068 70.0308 317.451 69.9765C317.8 69.9141 318.142 69.8381 318.469 69.7458C319.16 69.5504 319.773 69.2654 320.304 68.8909C320.835 68.5163 321.252 68.0305 321.55 67.4307C321.848 66.8309 321.997 66.1035 321.997 65.2431C321.997 63.9702 321.707 62.928 321.13 62.1138C320.55 61.2996 319.743 60.7025 318.708 60.3171C317.67 59.9344 316.453 59.7417 315.053 59.7417H302.756V77.8935H306.482V71.187H313.514C314.69 71.187 315.592 71.263 316.218 71.4122C316.844 71.5615 317.277 71.8302 317.521 72.2129C317.762 72.5956 317.884 73.1357 317.884 73.8251V77.8935H321.61V73.5726C321.61 72.563 321.398 71.8003 320.978 71.2874C320.558 70.7744 319.927 70.4189 319.087 70.2208ZM306.482 68.272V62.9416H315.053C316.099 62.9416 316.895 63.156 317.448 63.5875C317.998 64.0191 318.274 64.6433 318.274 65.4684C318.274 66.2935 317.998 67.0127 317.448 67.5175C316.898 68.0224 316.099 68.2748 315.053 68.2748H306.482V68.272Z" fill="white"/>
<path d="M75.8691 53.4504C79.2533 53.4504 82.0036 50.6929 82.0036 47.3058C82.0036 43.9186 79.2506 41.1611 75.8691 41.1611C72.4875 41.1611 69.7346 43.9186 69.7346 47.3058C69.7346 50.6929 72.4875 53.4504 75.8691 53.4504ZM75.8691 42.6973C78.4052 42.6973 80.4672 44.7627 80.4672 47.3031C80.4672 49.8434 78.4052 51.9089 75.8691 51.9089C73.3329 51.9089 71.2709 49.8434 71.2709 47.3031C71.2709 44.7627 73.3329 42.6973 75.8691 42.6973Z" fill="white"/>
<path d="M75.869 50.3048C77.5192 50.3048 78.8631 48.9587 78.8631 47.3058C78.8631 45.6529 77.5192 44.3067 75.869 44.3067C74.2189 44.3067 72.8749 45.6529 72.8749 47.3058C72.8749 48.9587 74.2189 50.3048 75.869 50.3048ZM75.869 45.8429C76.6738 45.8429 77.3268 46.4997 77.3268 47.3031C77.3268 48.1064 76.6738 48.7632 75.869 48.7632C75.0643 48.7632 74.4113 48.1064 74.4113 47.3031C74.4113 46.4997 75.0643 45.8429 75.869 45.8429Z" fill="white"/>
<path d="M64.8654 49.1188L65.2177 50.617L66.3178 50.3564C66.7025 51.5778 67.4694 52.6797 68.5613 53.4749L72.2653 56.17C73.1243 56.7942 74.097 57.166 75.0969 57.2936V58.4471H76.6332V57.2936C77.633 57.166 78.6085 56.7942 79.4647 56.17L83.1687 53.4749C84.3149 52.639 85.1007 51.4665 85.4637 50.1691L86.5747 50.4107L86.8998 48.9071L85.6913 48.6465C85.7049 47.9707 85.6101 47.2868 85.3933 46.6164L83.9789 42.2549C83.67 41.2995 83.1443 40.4636 82.4669 39.7905L83.1633 38.8623L81.9359 37.9368L81.2476 38.8542C80.3318 38.3168 79.2723 38.0155 78.156 38.0155H73.5768C72.3304 38.0155 71.1571 38.3928 70.1735 39.0496L69.4582 38.1648L68.266 39.1337L69.0138 40.0565C68.4584 40.678 68.0221 41.419 67.7512 42.2522L66.3367 46.6137C66.0983 47.3492 66.0089 48.101 66.0468 48.8392L64.8627 49.1188H64.8654ZM67.7999 47.0887L69.2143 42.7271C69.3905 42.187 69.6614 41.6985 70.0001 41.2724L70.4635 41.8451L71.6557 40.8761L71.1463 40.2492C71.8589 39.8041 72.6934 39.5517 73.5768 39.5517H78.156C78.9309 39.5517 79.6679 39.7471 80.3182 40.0945L79.8874 40.6699L81.1148 41.5954L81.5321 41.039C81.9684 41.514 82.3125 42.0866 82.5211 42.7299L83.9355 47.0914C84.0656 47.4931 84.136 47.9056 84.155 48.3127L83.437 48.158L83.1118 49.6616L83.9626 49.8462C83.6808 50.7825 83.101 51.6266 82.2691 52.2318L78.5651 54.9269C77.9771 55.353 77.316 55.6244 76.6359 55.7411V54.4438H75.0996V55.7411C74.4195 55.6244 73.7583 55.3557 73.1703 54.9269L69.4663 52.2318C68.6805 51.6592 68.1197 50.8748 67.8216 50.0036L69.0409 49.7159L68.6887 48.2177L67.575 48.481C67.5777 48.0196 67.6509 47.5501 67.7999 47.0941V47.0887Z" fill="white"/>
<path d="M80.4022 27.4822H74.7121V24H65.9357V27.4822H60.2456V24H51.4665V27.4822H45.7764V24H37V66.8689C37 81.2779 48.7027 93 63.0879 93C77.4731 93 89.1758 81.2779 89.1758 66.8689V24H80.3995V27.4822H80.4022ZM38.5363 50.8069C39.146 51.0132 39.7746 51.1136 40.4005 51.1136C41.9829 51.1136 43.5355 50.4704 44.6492 49.2843L47.0661 50.427V61.9401H38.5363V50.8069ZM48.5998 52.4734H52.2983V58.0725H48.5998V52.4734ZM53.8347 45.1237V44.9337L58.4383 42.7488L61.5922 49.4336C59.9367 49.876 58.1267 49.2789 57.0699 47.873L56.6933 47.3709L53.8347 48.7252V45.1237ZM52.2983 43.5848H48.5998V39.1826H52.2983V43.5848ZM52.2983 45.1237V50.9345H48.5998V45.1237H52.2983ZM47.0634 45.1237V48.7252L44.2048 47.3709L43.8282 47.873C42.7714 49.2789 40.9614 49.8733 39.3059 49.4336L42.4598 42.7488L47.0634 44.9337V45.1237ZM48.5998 59.6087H52.2983V61.9401H48.5998V59.6087ZM53.8347 50.427L56.2516 49.2843C57.3653 50.4704 58.9179 51.1136 60.5003 51.1136C61.1099 51.1136 61.725 51.0159 62.3211 50.8205V61.9401H53.8374V50.427H53.8347ZM62.3184 47.3736L59.1699 40.6997L53.8347 43.232V35.6054L51.9894 37.6437H48.952L47.0634 35.7167V43.232L41.7282 40.6997L38.5363 47.4659V33.9607H62.3211V47.3764L62.3184 47.3736ZM38.5363 66.8689V63.4817H62.3211V91.4503C58.17 91.3227 54.2763 90.1584 50.8894 88.2069V73.9607L55.688 77.7767L56.1676 77.1905C60.5409 71.8546 58.0562 66.6409 57.9505 66.421L57.7473 66.0058L57.2867 65.9922H44.343V72.9755H46.4863V84.9718C41.6036 80.4745 38.539 74.0259 38.539 66.8716L38.5363 66.8689ZM83.6754 80.2547C83.2635 80.5125 82.8219 80.6347 82.2854 80.6347C81.0877 80.6347 80.5106 80.024 79.7817 79.2478C78.9986 78.4145 78.0232 77.3778 76.1617 77.3778C74.3002 77.3778 73.3248 78.4145 72.5417 79.2478C71.8128 80.0213 71.2384 80.6347 70.0407 80.6347C68.8431 80.6347 68.266 80.024 67.5398 79.2478C66.7567 78.4145 65.7813 77.3778 63.9198 77.3778H63.8575V72.9593H63.9198C65.1174 72.9593 65.6946 73.5699 66.4207 74.3434C67.2038 75.1767 68.1792 76.2134 70.0407 76.2134C71.9022 76.2134 72.8777 75.1767 73.6607 74.3434C74.3896 73.5699 74.9641 72.9565 76.1617 72.9565C77.3593 72.9565 77.9365 73.5672 78.6654 74.3434C79.4484 75.1767 80.4239 76.2134 82.2854 76.2134C84.1469 76.2134 85.1223 75.1767 85.9054 74.3434C86.1845 74.0476 86.4419 73.7762 86.7183 73.5509C86.0409 75.9529 85.0058 78.2083 83.6754 80.2547ZM63.8575 84.8768H63.9198C65.1174 84.8768 65.6946 85.4874 66.4207 86.2637C67.2038 87.0969 68.1792 88.1337 70.0407 88.1337C71.9022 88.1337 72.8777 87.0969 73.6607 86.2637C74.3896 85.4901 74.9641 84.8768 76.1617 84.8768C77.2401 84.8768 77.8145 85.3734 78.4513 86.0384C74.4276 89.279 69.3688 91.2793 63.8575 91.4503V84.8768ZM84.789 73.2904C84.0601 74.0639 83.4857 74.6773 82.2854 74.6773C81.085 74.6773 80.5106 74.0666 79.7817 73.2904C78.9986 72.4571 78.0232 71.4204 76.1617 71.4204C74.3002 71.4204 73.3248 72.4571 72.5417 73.2904C71.8128 74.0639 71.2384 74.6773 70.0407 74.6773C68.8431 74.6773 68.266 74.0666 67.5398 73.2904C66.7567 72.4571 65.7813 71.4204 63.9062 71.4204H63.8575V66.9991H63.9198C65.1174 66.9991 65.6946 67.6098 66.4207 68.386C67.2038 69.2192 68.1792 70.256 70.0407 70.256C71.9022 70.256 72.8777 69.2192 73.6607 68.386C74.3896 67.6125 74.9641 66.9991 76.1617 66.9991C77.3593 66.9991 77.9365 67.6098 78.6654 68.386C79.4484 69.2192 80.4239 70.256 82.2854 70.256C84.1469 70.256 85.1223 69.2192 85.9054 68.386C86.4581 67.7998 86.9215 67.3058 87.6368 67.1023C87.6233 68.6357 87.4688 70.1366 87.1843 71.5914C86.0788 71.9198 85.377 72.6634 84.7863 73.2904H84.789ZM84.789 67.3302C84.0601 68.1038 83.4857 68.7171 82.2854 68.7171C81.085 68.7171 80.5106 68.1065 79.7817 67.3302C78.9986 66.497 78.0232 65.4603 76.1617 65.4603C74.3002 65.4603 73.3248 66.497 72.5417 67.3302C71.8128 68.1038 71.2384 68.7171 70.0407 68.7171C68.8431 68.7171 68.266 68.1065 67.5398 67.3302C66.7567 66.497 65.7813 65.4603 63.9198 65.4603H63.8575V63.4817H87.6422V65.5254C86.2658 65.7642 85.4583 66.6192 84.789 67.3302ZM50.1849 71.4339H45.8793V67.5257H56.7448C57.1621 68.6927 57.9885 72.0446 55.4415 75.6109L50.1849 71.4339ZM49.353 72.9728V87.2434C48.8978 86.934 48.4534 86.6111 48.0199 86.2718V72.9728H49.353ZM79.6218 85.0369C78.8632 84.239 77.8985 83.3379 76.1644 83.3379C74.3029 83.3379 73.3275 84.3747 72.5444 85.2079C71.8155 85.9814 71.2411 86.5948 70.0434 86.5948C68.8458 86.5948 68.2687 85.9841 67.5425 85.2079C66.7594 84.3747 65.784 83.3379 63.9225 83.3379H63.8602V78.9166H63.9225C65.1201 78.9166 65.6973 79.5273 66.4234 80.3035C67.2065 81.1368 68.182 82.1735 70.0434 82.1735C71.9049 82.1735 72.8804 81.1368 73.6635 80.3035C74.3923 79.53 74.9668 78.9166 76.1644 78.9166C77.362 78.9166 77.9392 79.5273 78.6681 80.3035C79.4511 81.1368 80.4266 82.1735 82.2881 82.1735H82.2962C81.4806 83.1968 80.5892 84.1548 79.6245 85.0342L79.6218 85.0369ZM87.6422 61.9428H63.8575V33.9607H87.6422V61.9428ZM81.9385 25.5389H87.6422V32.4218H38.5363V25.5389H44.24V29.021H53.0028V25.5389H58.7065V29.021H67.4693V25.5389H73.173V29.021H81.9358V25.5389H81.9385Z" fill="white"/>
</svg>
